HIERARCHY
ROOT Hip
{
    OFFSET 0.0 0.0 0.0
    CHANNELS 6 Xposition Yposition Zposition Zrotation Xrotation Yrotation
    JOINT RightHip
    {
        OFFSET -0.08691974729299545 0.0 0.0
        CHANNELS 3 Zrotation Xrotation Yrotation
        JOINT RightKnee
        {
            OFFSET 0.0 0.0 -0.2998562455177307
            CHANNELS 3 Zrotation Xrotation Yrotation
            JOINT RightAnkle
            {
                OFFSET 0.0 0.0 -0.3094136714935303
                CHANNELS 3 Zrotation Xrotation Yrotation
                End Site
                {
                    OFFSET 0.0 -0.1237654834985733 0.0
                }
            }
        }
    }
    JOINT LeftHip
    {
        OFFSET 0.08691974729299545 0.0 0.0
        CHANNELS 3 Zrotation Xrotation Yrotation
        JOINT LeftKnee
        {
            OFFSET 0.0 0.0 -0.2998562455177307
            CHANNELS 3 Zrotation Xrotation Yrotation
            JOINT LeftAnkle
            {
                OFFSET 0.0 0.0 -0.3094136714935303
                CHANNELS 3 Zrotation Xrotation Yrotation
                End Site
                {
                    OFFSET 0.0 -0.1237654834985733 0.0
                }
            }
        }
    }
    JOINT Spine
    {
        OFFSET 0.0 0.0 0.17203514277935028
        CHANNELS 3 Zrotation Xrotation Yrotation
        JOINT Thorax
        {
            OFFSET 0.0 0.0 0.20128381252288818
            CHANNELS 3 Zrotation Xrotation Yrotation
            JOINT Neck
            {
                OFFSET 0.0 0.0 0.08335239440202713
                CHANNELS 3 Zrotation Xrotation Yrotation
                End Site
                {
                    OFFSET 0.0 0.0 0.03334096074104309
                }
            }
            JOINT LeftShoulder
            {
                OFFSET 0.11673979461193085 0.0 0.0
                CHANNELS 3 Zrotation Xrotation Yrotation
                JOINT LeftElbow
                {
                    OFFSET 0.19273105263710022 0.0 0.0
                    CHANNELS 3 Zrotation Xrotation Yrotation
                    JOINT LeftWrist
                    {
                        OFFSET 0.18076349794864655 0.0 0.0
                        CHANNELS 3 Zrotation Xrotation Yrotation
                        End Site
                        {
                            OFFSET 0.07230540364980698 0.0 0.0
                        }
                    }
                }
            }
            JOINT RightShoulder
            {
                OFFSET -0.11673979461193085 0.0 0.0
                CHANNELS 3 Zrotation Xrotation Yrotation
                JOINT RightElbow
                {
                    OFFSET -0.19273105263710022 0.0 0.0
                    CHANNELS 3 Zrotation Xrotation Yrotation
                    JOINT RightWrist
                    {
                        OFFSET -0.18076349794864655 0.0 0.0
                        CHANNELS 3 Zrotation Xrotation Yrotation
                        End Site
                        {
                            OFFSET -0.07230540364980698 0.0 0.0
                        }
                    }
                }
            }
        }
    }
}
MOTION
Frames: 4
Frame Time: 0.016666666666666666
0.0 0.0 0.5145660042762756 164.1763924638485 -16.473010464233383 -21.698286134395218 6.774016724201051 -14.943192095073211 41.41967865205878 37.731384811228196 50.323460453645446 -19.87206632199733 -3.975693351829396e-16 3.1805546814635168e-15 1.1034765745125397e-32 3.902618511990885 -24.274346114875765 12.224063590714787 -5.834118819484209 53.68275422143129 -3.186871223998181 0.0 0.0 0.0 -3.7802079535469537 14.284970977327278 4.088816723642804 -8.075216729142063 1.2562844873387525e-07 -2.7643300539418646e-07 4.5201041787881415 0.502042963227411 14.322180296471927 -89.67499568472843 -8.465588880603855 29.23833776743367 -40.390413237060926 7.057479226815721e-07 -4.049256505948803e-07 -3.180554681463516e-15 -7.951386703658789e-16 -3.180554681463516e-15 115.63942235500294 37.52707952509338 -50.5395376439994 1.9106804092412883 5.074797024083556e-05 4.172641103797529e-06 0.0 0.0 1.5902773407317584e-15
0.0 0.0 0.5126020908355713 165.49987344956472 -17.412017542798317 -20.795034695765846 6.298666196994006 -12.78937951185241 41.50123499674039 38.7578246708762 50.04243384802685 -21.562458802664995 -1.987846675914698e-16 0.0 0.0 2.8021076723839027 -22.074357516622158 8.427258115877269 -9.24780843409351 50.965879685254386 -2.6776119808913372 0.0 0.0 0.0 -3.606204502377835 14.077160691491784 3.518375366447569 -8.549390506174998 -3.186732402552258e-07 9.058174359606711e-07 3.256206608840301 0.7800414671226258 13.935868922924055 -91.43085573625591 -3.1366218938601462 28.66454114824738 -36.621033775733174 -5.879847029731583e-06 -1.0138628770463522e-06 -6.3611093629270335e-15 1.5902773407317584e-15 -1.5902773407317584e-15 116.66944602193544 37.60687741908266 -50.71365673362511 1.0793495833733204 0.00011369989179225123 1.7752740831065854e-05 -6.3611093629270335e-15 1.7655625192200634e-31 -3.1805546814635168e-15
0.0 0.0 0.5088834762573242 166.91504862775602 -18.31630195726849 -19.722051544890054 5.7809982792147 -10.68700806562202 41.504336029090055 39.532863477715544 49.662719878553645 -23.10656788900843 9.939233379573481e-17 -3.1805546814635168e-15 -3.1805546814635168e-15 2.0130674699619786 -20.560687953015094 4.830659631458718 -12.059403282880503 48.82631030630287 -2.744855856846234 0.0 0.0 0.0 -3.418064306237202 13.893807695396793 2.892196833507764 -8.823860029257695 2.245773602635687e-07 -2.0944896206676722e-07 1.917278637984726 0.8625455962622581 13.503143092422626 -93.39769114873151 2.585581829421273 28.35796592401635 -33.218536760978076 3.947276098459083e-06 -2.5843168268680214e-06 3.310429723537619e-32 3.1805546814635168e-15 -1.1927080055488188e-15 -94.33289728680074 -6.672338125491422 -141.8449316544964 0.4834439540080631 -0.00020492878995593107 7.208076060039719e-06 -7.951386703658794e-16 3.862168010793889e-32 -5.565970692561156e-15
0.0 0.0 0.49638479948043823 169.76244058765408 -19.587062206587433 -17.19110549868341 4.8177295462789465 -6.687218338560195 41.317372001480884 40.53320908369158 48.590759821380274 -25.754041432635354 0.0 0.0 0.0 0.9634650948865214 -19.47164978419476 -2.2085088340930517 -16.43328358724682 45.17796288117072 -3.6808863421459046 0.0 0.0 0.0 -2.8327083255823755 13.008370461913696 1.5805357772917692 -8.799450580249804 -5.816442714089792e-07 4.323858493294908e-07 -1.2901981661480335 1.1094080688072103 12.349909314292434 -97.6571990182494 14.941300781052886 28.728646353167516 -26.396552476894286 -2.5223361055000226e-06 -3.982040034046856e-06 -8.276074308844047e-32 3.1805546814635168e-15 2.9817700138720468e-15 -80.21066928751941 -22.660970462516612 -138.71620644362415 6.243683870405711 -2.1905767989274613e-05 4.475243088357964e-06 4.770832022195277e-15 0.0 0.0
